# xmcd
#
# Track frame offsets: 
#        150
#        26345
#        43870
#        66522
#        85250
#        102767
#        121310
#        130522
#        148801
#        167922
#        183231
#        196461
#        218766
#
# Disc length: 3088 seconds
#
# Revision: 1
# Processed by: cddbd v1.5.2PL0 Copyright (c) Steve Scherf et al.
# Submitted via: ExactAudioCopy v1.0b3
#
DISCID=b90c0e0d
DTITLE=Daniel Maza Trío - Vamo' Arriba
DYEAR=2005
DGENRE=Native American
TTITLE0=De Puro Apuro
TTITLE1=Afrobana
TTITLE2=A Mi Vieja
TTITLE3=Samba A Luizao Maia
TTITLE4=Así Como Ayer
TTITLE5=Urufunk
TTITLE6=Mateo (Te Amo)
TTITLE7=Candombe Pa' Mí
TTITLE8=Casi Una Chacarera 1
TTITLE9=Dame Una Oportunidad
TTITLE10=La Missisipi
TTITLE11=Yatra-Ta
TTITLE12=Fantasías Animadas
EXTD=YEAR: 2005 ID3G: 64
EXTT0=
EXTT1=
EXTT2=
EXTT3=
EXTT4=
EXTT5=
EXTT6=
EXTT7=
EXTT8=
EXTT9=
EXTT10=
EXTT11=
EXTT12=
PLAYORDER=
